<svg width="21" height="13" viewBox="0 0 21 13" fill="none" xmlns="http://www.w3.org/2000/svg">
<path d="M5.98064 0C6.57413 0 7.12198 0.0456537 7.62417 0.182615C8.12636 0.273922 8.53724 0.456537 8.90247 0.684806C9.2677 0.913074 9.54163 1.23265 9.72424 1.64353C9.90686 2.05442 9.99816 2.55661 9.99816 3.10445C9.99816 3.7436 9.8612 4.29145 9.54163 4.70233C9.2677 5.11322 8.81117 5.47845 8.26332 5.75237C9.03944 5.98064 9.63293 6.39152 9.99816 6.93936C10.3634 7.48721 10.5917 8.17201 10.5917 8.94813C10.5917 9.58728 10.4547 10.1351 10.2264 10.5917C9.99816 11.0482 9.63293 11.4591 9.22205 11.733C8.81117 12.0069 8.30898 12.2352 7.76113 12.3722C7.21329 12.5091 6.66544 12.6004 6.1176 12.6004H0V0H5.98064ZM5.61541 5.11322C6.1176 5.11322 6.52848 4.97625 6.84806 4.74799C7.16763 4.51972 7.30459 4.10883 7.30459 3.60664C7.30459 3.33272 7.25894 3.0588 7.16763 2.87618C7.07633 2.69357 6.93936 2.55661 6.75675 2.41965C6.57413 2.32834 6.39152 2.23703 6.16325 2.19138C5.93498 2.14572 5.70671 2.14572 5.43279 2.14572H2.78488V5.11322H5.61541ZM5.75237 10.5004C6.02629 10.5004 6.30021 10.4547 6.52848 10.409C6.75675 10.3634 6.98502 10.2721 7.16763 10.1351C7.35025 9.99816 7.48721 9.8612 7.62417 9.63293C7.71548 9.40466 7.80679 9.13074 7.80679 8.81117C7.80679 8.17201 7.62417 7.71548 7.25894 7.3959C6.89371 7.12198 6.39152 6.98502 5.79802 6.98502H2.78488V10.5004H5.75237ZM14.5635 10.4547C14.9288 10.8199 15.4766 11.0025 16.2071 11.0025C16.7093 11.0025 17.1658 10.8656 17.531 10.6373C17.8963 10.3634 18.1245 10.0895 18.2158 9.81555H20.4529C20.0876 10.9112 19.5398 11.6874 18.8093 12.1895C18.0789 12.6461 17.2115 12.92 16.1614 12.92C15.431 12.92 14.7918 12.783 14.1983 12.5548C13.6048 12.3265 13.1483 12.0069 12.7374 11.5504C12.3265 11.1395 12.0069 10.6373 11.8243 10.0438C11.596 9.45032 11.5047 8.81117 11.5047 8.08071C11.5047 7.3959 11.596 6.75675 11.8243 6.16325C12.0526 5.56975 12.3722 5.06756 12.783 4.61103C13.1939 4.20014 13.6961 3.83491 14.244 3.60664C14.8375 3.37837 15.431 3.24141 16.1614 3.24141C16.9375 3.24141 17.6223 3.37837 18.2158 3.69795C18.8093 4.01753 19.2659 4.38276 19.6311 4.9306C19.9963 5.43279 20.2702 6.02629 20.4529 6.66544C20.5442 7.30459 20.5898 7.94375 20.5442 8.6742H13.9244C13.9244 9.40466 14.1983 10.0895 14.5635 10.4547ZM17.4397 5.66106C17.1201 5.34148 16.618 5.15887 16.0245 5.15887C15.6136 5.15887 15.294 5.25018 15.0201 5.38714C14.7462 5.5241 14.5635 5.70671 14.3809 5.88933C14.1983 6.07194 14.107 6.30021 14.0613 6.52848C14.0157 6.75675 13.97 6.93936 13.97 7.12198H18.0789C17.9876 6.43717 17.7593 5.98064 17.4397 5.66106ZM13.4222 0.86742H18.5354V2.10007H13.4222V0.86742Z" fill="white"/>
</svg>
