<svg width="23" height="23" viewBox="0 0 23 23" fill="none" xmlns="http://www.w3.org/2000/svg">
<path d="M11.1631 22.3C5.00595 22.3 0 17.3028 0 11.1544C0 4.99722 5.00595 0 11.1631 0C17.3202 0 22.3262 4.99722 22.3262 11.1456C22.3262 17.2941 17.3202 22.3 11.1631 22.3ZM20.5732 12.6718C20.2505 12.5672 17.6255 11.791 14.6341 12.2619C15.8812 15.6806 16.3871 18.4714 16.483 19.047C18.6284 17.608 20.1546 15.3231 20.5732 12.6718ZM14.887 19.9278C14.7475 19.0906 14.1893 16.1777 12.855 12.7067C12.8375 12.7154 12.8114 12.7242 12.7939 12.7242C7.41299 14.5992 5.48561 18.3232 5.31119 18.672C6.9246 19.9278 8.95663 20.6779 11.1631 20.6779C12.48 20.6866 13.7446 20.4162 14.887 19.9278ZM4.0815 17.5295C4.29953 17.1632 6.91588 12.8375 11.8346 11.2416C11.9567 11.198 12.0875 11.1631 12.2096 11.1282C11.9742 10.5875 11.7125 10.0468 11.4334 9.51478C6.67169 10.9363 2.04947 10.8753 1.63086 10.8666C1.63086 10.9625 1.62214 11.0584 1.62214 11.1544C1.63086 13.605 2.5553 15.8376 4.0815 17.5295ZM1.83144 9.20954C2.25878 9.21826 6.1833 9.23571 10.6485 8.04963C9.07001 5.24142 7.36066 2.8867 7.11647 2.54658C4.43907 3.80242 2.45065 6.26179 1.83144 9.20954ZM8.93047 1.90121C9.1921 2.25006 10.9276 4.60477 12.4887 7.47403C15.8812 6.20074 17.3115 4.28209 17.4859 4.0379C15.8027 2.54658 13.5876 1.63958 11.1631 1.63958C10.3956 1.63958 9.64561 1.73551 8.93047 1.90121ZM18.5412 5.13676C18.3406 5.40712 16.7446 7.45659 13.2213 8.89558C13.4393 9.34908 13.6573 9.8113 13.8579 10.2735C13.9277 10.4392 13.9975 10.6049 14.0672 10.7619C17.2417 10.3607 20.3901 11.0061 20.704 11.0671C20.6779 8.82581 19.8755 6.7589 18.5412 5.13676Z" fill="white"/>
</svg>
