<svg width="17" height="17" viewBox="0 0 17 17" fill="none" xmlns="http://www.w3.org/2000/svg">
<path fill-rule="evenodd" clip-rule="evenodd" d="M15.2042 0.139091L0.66889 8.39106C0.070182 8.72794 0.0939464 9.22746 0.723318 9.4963L2.57694 10.2904C3.20247 10.5559 4.15151 10.4107 4.68506 9.96013L12.7458 3.08225C13.2755 2.62837 13.333 2.69641 12.8715 3.23078L6.49958 10.6148C6.03733 11.1459 6.17608 11.7972 6.80392 12.0636L7.02086 12.1532C7.64947 12.4171 8.67593 12.8577 9.29917 13.1365L11.359 14.0409C11.9853 14.3164 12.4943 14.5462 12.4974 14.5495C12.4974 14.5529 12.5005 14.5653 12.5035 14.5653C12.5058 14.5686 12.653 13.9919 12.8293 13.2883L15.9678 0.8029C16.1448 0.100093 15.7999 -0.198621 15.2042 0.139091Z" fill="white"/>
<path fill-rule="evenodd" clip-rule="evenodd" d="M6.96152 12.9443L5.74114 12.2463C5.20459 11.9422 4.94749 12.2994 5.17105 13.0442C5.17105 13.0442 6.30399 16.8512 6.27308 16.9877C6.23955 17.1196 7.36196 14.726 7.36196 14.726C7.67824 14.0536 7.49807 13.2484 6.96152 12.9443Z" fill="white"/>
</svg>
