<svg width="1579" height="1236" viewBox="0 0 1579 1236" fill="none" xmlns="http://www.w3.org/2000/svg">
<g id="Strip-Patterns" opacity="0.8">
<g id="top_3">
<rect id="Rectangle 7 Copy 11" width="6" height="181" rx="3" transform="matrix(-0.819152 0.573576 0.573576 0.819152 722.915 111)" fill="url(#paint0_linear_370_392)"/>
</g>
<g id="tight_4">
<rect id="Rectangle 7 Copy 13" width="9" height="70" rx="4.5" transform="matrix(-0.819152 0.573576 0.573576 0.819152 1028.37 272)" fill="url(#paint1_linear_370_392)"/>
</g>
<g id="top_1">
<rect id="Rectangle 7" width="8" height="241" rx="4" transform="matrix(-0.819152 0.573576 0.573576 0.819152 351.553 129)" fill="url(#paint2_linear_370_392)"/>
<g id="luffy">
<rect id="luffy_2" width="30" height="400" rx="15" transform="matrix(-0.819152 0.573576 0.573576 0.819152 386.575 110)" fill="url(#paint3_linear_370_392)"/>
</g>
</g>
<g id="top_2">
<rect id="Rectangle 7 Copy 12" width="23" height="300" rx="11.25" transform="matrix(-0.819152 0.573576 0.573576 0.819152 432.84 0)" fill="url(#paint4_linear_370_392)"/>
</g>
<g id="top_5">
<rect id="Rectangle 7 Copy 10" width="19" height="400" rx="9.5" transform="matrix(-0.819152 0.573576 0.573576 0.819152 1349.56 28)" fill="url(#paint5_linear_370_392)"/>
</g>
<g id="botm_5">
<rect id="Rectangle 7 Copy 15" width="19" height="400" rx="9.5" transform="matrix(-0.819152 0.573576 0.573576 0.819152 1084.56 742)" fill="url(#paint6_linear_370_392)"/>
</g>
<g id="botm_2">
<rect id="Rectangle 7 Copy 4" opacity="0.312783" width="4.84701" height="241" rx="2.42351" transform="matrix(-0.809017 0.587785 0.587785 0.809017 679.921 680)" fill="url(#paint7_linear_370_392)"/>
</g>
<g id="botm_6">
<rect id="Rectangle 7 Copy 16" opacity="0.312783" width="4.84701" height="241" rx="2.42351" transform="matrix(-0.809017 0.587785 0.587785 0.809017 825.921 1038)" fill="url(#paint8_linear_370_392)"/>
</g>
<g id="botm_4">
<rect id="Rectangle 7 Copy 17" opacity="0.312783" width="4.84701" height="241" rx="2.42351" transform="matrix(-0.809017 0.587785 0.587785 0.809017 1010.92 826)" fill="url(#paint9_linear_370_392)"/>
</g>
<g id="botm_1">
<rect id="Rectangle 7 Copy 9" width="4.84701" height="100" rx="2.42351" transform="matrix(-0.809017 0.587785 0.587785 0.809017 626.921 650)" fill="url(#paint10_linear_370_392)"/>
</g>
<g id="left_2">
<rect id="Rectangle 7 Copy 14" opacity="0.169044" width="6.85" height="75" rx="3.425" transform="matrix(-0.809017 0.587785 0.587785 0.809017 139.542 279.713)" fill="url(#paint11_linear_370_392)"/>
</g>
<g id="botm_3">
<rect id="Rectangle 7 Copy 5" opacity="0.312783" width="8" height="241" rx="4" transform="matrix(-0.809017 0.587785 0.587785 0.809017 816.472 734)" fill="url(#paint12_linear_370_392)"/>
</g>
<g id="left_1">
<g id="xxxx">
<rect id="Rectangle 7 Copy 6" width="4.84701" height="241" rx="2.42351" transform="matrix(-0.809017 0.587785 0.587785 0.809017 41.9214 474)" fill="url(#paint13_linear_370_392)"/>
</g>
<g id="xx">
<rect id="Rectangle 7 Copy 7" opacity="0.143965" width="12" height="241" rx="6" transform="matrix(-0.809017 0.587785 0.587785 0.809017 9.70801 474)" fill="url(#paint14_linear_370_392)"/>
</g>
</g>
</g>
<defs>
<linearGradient id="paint0_linear_370_392" x1="24.5769" y1="-808.909" x2="-26.5982" y2="-808.584" gradientUnits="userSpaceOnUse">
<stop stop-color="#8468F5"/>
<stop offset="1" stop-color="#EC74E7"/>
</linearGradient>
<linearGradient id="paint1_linear_370_392" x1="0.103176" y1="-205.017" x2="-46.9301" y2="-202.265" gradientUnits="userSpaceOnUse">
<stop stop-color="#8468F5"/>
<stop offset="1" stop-color="#EC74E7"/>
</linearGradient>
<linearGradient id="paint2_linear_370_392" x1="-4.54239" y1="-401.319" x2="-34.9406" y2="-400.96" gradientUnits="userSpaceOnUse">
<stop stop-color="#8468F5"/>
<stop offset="1" stop-color="#EC74E7"/>
</linearGradient>
<linearGradient id="paint3_linear_370_392" x1="-17.034" y1="-666.089" x2="-130.962" y2="-663.056" gradientUnits="userSpaceOnUse">
<stop stop-color="#8468F5"/>
<stop offset="1" stop-color="#EC74E7"/>
</linearGradient>
<linearGradient id="paint4_linear_370_392" x1="80.0602" y1="-1557.11" x2="-161.28" y2="-1554.5" gradientUnits="userSpaceOnUse">
<stop stop-color="#8468F5"/>
<stop offset="0.946455" stop-color="#E673E8"/>
<stop offset="1" stop-color="#EC74E7"/>
</linearGradient>
<linearGradient id="paint5_linear_370_392" x1="-10.7882" y1="-666.089" x2="-82.9734" y2="-664.872" gradientUnits="userSpaceOnUse">
<stop stop-color="#8468F5"/>
<stop offset="1" stop-color="#EC74E7"/>
</linearGradient>
<linearGradient id="paint6_linear_370_392" x1="-10.7882" y1="-666.089" x2="-82.9734" y2="-664.872" gradientUnits="userSpaceOnUse">
<stop stop-color="#8468F5"/>
<stop offset="1" stop-color="#EC74E7"/>
</linearGradient>
<linearGradient id="paint7_linear_370_392" x1="-2.75213" y1="-401.319" x2="-21.1713" y2="-401.187" gradientUnits="userSpaceOnUse">
<stop stop-color="#8468F5"/>
<stop offset="1" stop-color="#EC74E7"/>
</linearGradient>
<linearGradient id="paint8_linear_370_392" x1="-2.75213" y1="-401.319" x2="-21.1713" y2="-401.187" gradientUnits="userSpaceOnUse">
<stop stop-color="#8468F5"/>
<stop offset="1" stop-color="#EC74E7"/>
</linearGradient>
<linearGradient id="paint9_linear_370_392" x1="-2.75213" y1="-401.319" x2="-21.1713" y2="-401.187" gradientUnits="userSpaceOnUse">
<stop stop-color="#8468F5"/>
<stop offset="1" stop-color="#EC74E7"/>
</linearGradient>
<linearGradient id="paint10_linear_370_392" x1="-2.75213" y1="-166.522" x2="-21.1668" y2="-166.205" gradientUnits="userSpaceOnUse">
<stop stop-color="#8468F5"/>
<stop offset="1" stop-color="#EC74E7"/>
</linearGradient>
<linearGradient id="paint11_linear_370_392" x1="-3.88942" y1="-124.892" x2="-29.8942" y2="-124.049" gradientUnits="userSpaceOnUse">
<stop stop-color="#8468F5"/>
<stop offset="1" stop-color="#EC74E7"/>
</linearGradient>
<linearGradient id="paint12_linear_370_392" x1="-4.54239" y1="-401.319" x2="-34.9406" y2="-400.96" gradientUnits="userSpaceOnUse">
<stop stop-color="#8468F5"/>
<stop offset="1" stop-color="#EC74E7"/>
</linearGradient>
<linearGradient id="paint13_linear_370_392" x1="-2.75213" y1="-401.319" x2="-21.1713" y2="-401.187" gradientUnits="userSpaceOnUse">
<stop stop-color="#8468F5"/>
<stop offset="1" stop-color="#EC74E7"/>
</linearGradient>
<linearGradient id="paint14_linear_370_392" x1="-6.81358" y1="-401.319" x2="-52.403" y2="-400.513" gradientUnits="userSpaceOnUse">
<stop stop-color="#8468F5"/>
<stop offset="1" stop-color="#EC74E7"/>
</linearGradient>
</defs>
</svg>
